<?xml version="1.0" encoding="UTF-8"?>
<svg id="Layer_2" data-name="Layer 2" xmlns="http://www.w3.org/2000/svg" viewBox="0 0 46.87 7.34">
  <defs>
    <style>
      .cls-1, .cls-2 {
        fill: #fff;
      }

      .cls-2 {
        font-family: CanelaTextTrial-Black, 'Canela Text Trial';
        font-size: 6.43px;
        font-weight: 800;
      }
    </style>
  </defs>
  <g id="Layer_1-2" data-name="Layer 1">
    <g>
      <text class="cls-2" transform="translate(9.92 5.57)"><tspan x="0" y="0">brew haven</tspan></text>
      <g>
        <path class="cls-1" d="M7.45,1.04c-.48-.33-1.13-.39-1.7-.36-1.85.09-3.94,1.47-4.91,3.02-.4.63-.7,1.49-.27,2.19.48.79,1.5.77,2.31.65,1.74-.26,3.38-1.44,4.38-2.86.51-.73,1.14-1.97.19-2.63ZM3.56,6.08c-.95.59-3.09.68-2.94-.92.09-.95.8-1.93,1.47-2.57.15-.14.62-.57.81-.6.14-.02.13.12.12.22-.02.25-.1.5-.11.75-.03.53.12,1.24.79,1.2.51-.03.81-.48,1.21-.72.09-.06.26-.14.3.02.06.23-.13.66-.23.87-.3.62-.81,1.39-1.41,1.76ZM7.58,2.4c-.17.89-1.25,2.07-1.93,2.65-.11.1-.4.34-.54.36-.21.04-.1-.3-.06-.41.15-.52.49-1.24.34-1.79-.19-.7-.97.08-1.3.23-.62.27-.74-.35-.59-.82.3-.97,1.45-1.6,2.41-1.64.86-.04,1.86.39,1.67,1.42Z"/>
        <path class="cls-1" d="M.85,2.97c-.05.14.1.19.17.07.07-.11-.04-.19-.15-.13.05-.12-.12-.16-.16-.05-.03.09.05.14.13.11ZM.95,2.92c.08-.01.1.07.05.13-.1.13-.25-.1-.05-.13ZM.85,2.84c.07.08-.07.15-.11.1-.05-.06.05-.17.11-.1Z"/>
        <path class="cls-1" d="M.7,3.24c.05-.01.07-.06.08-.11.04.05.03.1.03.15,0,.01,0,.03,0,.03.04-.13-.03-.33-.19-.3-.13.03-.09.27.07.23ZM.63,3.03s.12.04.13.07c.03.1-.09.17-.17.07-.04-.05-.03-.13.04-.14Z"/>
        <path class="cls-1" d="M1.04,2.66c.06.07.05.2.04.29.01,0,.02,0,.03-.01.04-.04.07-.1.12-.13l-.02-.06h-.02c.03.06-.05.11-.09.16v-.18s-.05-.12-.11-.13c-.07,0-.18.12-.09.16-.04-.11.06-.2.14-.1Z"/>
        <path class="cls-1" d="M.21,3.94s.14.04.19.06l.02-.03c-.06,0-.15-.08-.2-.07-.05.02-.07.09-.04.13h-.04s0,.03,0,.03c.06,0,.14.04.18.08l.02-.04s-.15-.05-.16-.06c-.02-.02,0-.09.02-.11Z"/>
        <path class="cls-1" d="M.61,3.55l-.02.07c-.03.06-.09.06-.15.03,0,0,0-.03,0-.04,0,0-.02.01-.02.03-.07-.05-.01-.18.06-.11-.02.03-.03.05-.04.08.02-.02.06-.07.07-.1.01-.04-.06-.03-.09-.02-.06.03-.06.12-.02.16.09.1.24.02.19-.11Z"/>
        <path class="cls-1" d="M.11,4.32c-.06.04-.08-.04-.04-.08.01-.01.04,0,.04-.02-.07-.04-.11.11-.04.13.08.03.09-.11.17-.08.05.02,0,.12-.06.12,0,.01.04.01.04.01.04-.01.07-.14,0-.16-.07-.02-.08.04-.12.07Z"/>
        <path class="cls-1" d="M.48,3.29s.17.12.21.13v.03s.06-.05.05-.05c-.01,0-.03,0-.04,0-.08-.04-.17-.13-.25-.17v.09s.02-.02.03-.03Z"/>
        <path class="cls-1" d="M.48,3.74s0,.03,0,.05c0,.14-.22.1-.2-.03,0-.05.04-.06.09-.06-.06-.06-.11.05-.1.1.02.17.3.12.21-.06Z"/>
        <path class="cls-1" d="M.1,4.17c.06,0,.14.03.19.07l.02-.04-.22-.07v.04Z"/>
        <path class="cls-1" d="M.01,4.08s-.02.04,0,.04c.04.01.04-.05,0-.04Z"/>
      </g>
    </g>
  </g>
</svg>