<?xml version="1.0" encoding="UTF-8"?>
<svg id="Layer_2" data-name="Layer 2" xmlns="http://www.w3.org/2000/svg" viewBox="0 0 51.59 8.17">
  <defs>
    <style>
      .cls-1 {
        fill: #f9f9fb;
      }

      .cls-2 {
        fill: #fff;
        font-family: RoserriRegular, Roserri;
        font-size: 6.06px;
      }
    </style>
  </defs>
  <g id="Layer_1-2" data-name="Layer 1">
    <g>
      <text class="cls-2" transform="translate(10.98 5.49)"><tspan x="0" y="0">Nargis beauty</tspan></text>
      <g>
        <path class="cls-1" d="M6.11.64C1.61-2.11-2.5,4.72,1.85,7.55c1.53,1.01,3.75.77,5.01-.57,1.77-1.86,1.42-4.96-.75-6.34ZM1.28,6.58c-.05-.18-.05-.56.12-.67.11.41.22.83.45,1.2-.16-.06-.51-.38-.57-.53ZM2.57,7.55c-.55-.34-.95-1.1-1.05-1.74,0-.09.11-.04.16-.01.09.06.25.42.32.53.38.66,1.01,1.17,1.66,1.51-.37-.06-.75-.14-1.09-.29ZM6.4,6.96c-.51.44-1.18.76-1.85.85-1.07-.11-2.04-.94-2.53-1.88,0-.02.01-.02.03-.02.41.04.71.17,1.09-.09l.32-.19c.46.23.93,0,1.29-.32.02-.02.13-.14.15-.12-.02,1.89.9.84,1.68,1.24.05.03.17.14.14.19-.03.06-.27.28-.33.33ZM2.56,2.37c-.07.02-.47.16-.5.15.08-.81,1.1-1.33,1.86-1.3.33,0,1.09.17,1.01.61-.05.17-.29.16-.41.09-.21-.12-.21-.48-.39-.53-.19-.06-.03.22,0,.29.27.99-.83,1.17-1.53,1.34-.35.14-.76.48-.78.89-.07.02-.08-.18-.1-.22-.18-1.53,1.91-.86,2.33-1.89-.4.37-.97.44-1.49.57ZM5.57,3.47c-.39.37-.57-.44-.27-.63.16-.13.31-.04.36.14.06.18.04.36-.1.49ZM5.6,4.25c-.03.23-.16.51-.38.61.11-.25.22-.51.24-.78,0,0,.02,0,.03,0,0,0,.11.16.12.18ZM5.85,3.5c.21.1.24.47.05.6-.12-.03-.31-.22-.26-.35.01-.02.19-.25.21-.25ZM5.77,2.98s-.03-.09-.05-.13c-.02-.04-.06-.07.01-.1.28.06.6.09.74.38.02.04.08.19.05.23-.02.02-.25.08-.29.08-.35-.05-.42-.13-.46-.46ZM6.36,2.49c-.1.19-.36.24-.55.17-.04-.02-.12-.17-.11-.22.07-.15.23-.31.41-.31.1,0,.35,0,.35.15,0,.03-.08.18-.1.22ZM5.79,2.13s-.17.32-.24.28c-.07-.17-.29-.2-.35-.37-.08-.26.11-.52.34-.61.23.07.33.48.25.7ZM5.44,2.44s-.03.05-.04.08c-.04.06,0,.13-.06.17-.27.17-.64-.1-.66-.38,0-.09.22-.15.29-.16.26-.03.32.12.48.29ZM2.32,3.43s.07-.06.07,0c.01.11-.15.22-.21.31-.1.14-.16.31-.19.48,0,0-.03,0-.03,0,0,0-.02-.09-.02-.11,0-.25.18-.54.38-.69ZM2.47,3.77c.05.32.06.68.27.95.01.05-.16.02-.19,0-.2-.07-.31-.27-.29-.48.02-.09.12-.44.21-.48ZM2.64,3.34c0-.1.18-.16.27-.18.65-.1,1.2-.25,1.5-.88,0,.33.25.6.56.68.03.03.02.14.02.19,0,.02.03.06-.01.06-.03,0-.17-.09-.22-.1-.19-.07-.51.03-.55.24.27-.08.81-.31.83.16-.13,0-.17-.02-.29.05-.13.04-.33-.07-.44.06-.05.05.13.12.17.13.22.08.41-.03.59-.14.01,0,.09.2.1.24.23.57-.42,1.35-.96,1.5-.39.11-.93-.34-1.15-.64-.29-.4-.32-.89-.39-1.37ZM5.33,6.01c-.12-.17-.21-.65-.13-.85.41-.16.52-.38.65-.78.05-.05.11.09.23-.04.15-.17.22-.38.21-.6.11-.02.49-.14.53-.25.06-.24-.12-.61-.3-.76.14-.16.27-.43.25-.65-.08-.12-.32-.2-.46-.22-.05,0-.17.01-.21-.02-.03-.03-.03-.13-.04-.18-.02-.07-.06-.18-.1-.24-.23-.29-.3-.42-.65-.19-.05.03-.16.14-.21.13-1.05-.94-3.15-.3-3.34,1.14.03.17-.1.29-.2.42-.32.52-.12,1.22.4,1.52.04.05.06.15.09.21.37.59.84.16.98.46.08.18.01.42-.17.52-.21.12-.57-.02-.8-.02-.15-.03-.28-.12-.43-.13-.36-.03-.58.27-.73.55-.01.02,0,.05-.04.03-.02-.01-.13-.23-.15-.27C-1.35,1.65,4.67-1.91,7.14,2.17c.74,1.26.7,3.01-.2,4.18-.6-.65-1.16-.03-1.62-.34Z"/>
        <path class="cls-1" d="M3.75,4.61s-.2-.05-.2.02c0,.05.19.14.23.16.2.07.41.02.55-.14.01-.02.06-.08.06-.09,0-.03-.05-.05-.08-.04-.07.02-.15.06-.23.07-.1.02-.23.03-.34.02Z"/>
        <path class="cls-1" d="M3.36,3.85s.16-.11.16-.14c-.03-.04-.1-.06-.15-.06-.07,0-.15.07-.22.08-.04,0-.09-.03-.13-.03-.07,0-.17,0-.23.05-.08.06.14.15.19.16.12.03.27.01.38-.05Z"/>
        <path class="cls-1" d="M2.93,3.46c.18-.05.47-.12.62.03.01.01.06.11.09.08.02-.02-.08-.17-.1-.19-.14-.16-.4-.18-.58-.07-.03.02-.15.12-.15.15-.01.09.09.02.13,0Z"/>
        <path class="cls-1" d="M3.76,4.4c.09.03.23.02.29-.06.03-.04.05-.07,0-.11-.06-.05-.11,0-.17.01-.03,0-.09,0-.12,0-.04,0-.06-.04-.1,0-.04.05.05.13.1.15Z"/>
      </g>
    </g>
  </g>
</svg>