<?xml version="1.0" encoding="UTF-8"?>
<svg id="Layer_2" data-name="Layer 2" xmlns="http://www.w3.org/2000/svg" viewBox="0 0 42.37 7.1">
  <defs>
    <style>
      .cls-1, .cls-2 {
        fill: #fff;
      }

      .cls-2 {
        font-family: CenturyGothicPaneuropean-Bold, 'Century Gothic Paneuropean';
        font-size: 6.49px;
        font-weight: 700;
      }
    </style>
  </defs>
  <g id="Layer_1-2" data-name="Layer 1">
    <g>
      <text class="cls-2" transform="translate(8.72 5.58)"><tspan x="0" y="0">Naturawell</tspan></text>
      <path class="cls-1" d="M6.23,5.45c-.09-.6-.04-1.3-.03-1.91,0-.24.02-.49.02-.74,0-.47-.1-.88-.3-1.23C5.31.52,3.92.29,3.81.28c-.22-.03-1.42-.12-2.41.75-.83.74-.82,1.63-.82,1.85.29-.33.82-.74,1.46-1.15.55-.36,1.96-1.29,2.69-.78.34.23.53.78.38,1.15-.09.23-.31.35-.41.4-1.32.68-3.09.43-4.07,1.4-.06.06-.75.76-.62,1.6.11.66.68,1.2,1.17,1.32,1.76.41,3.03-1.25,3.76-2.61l.32-.65c-.01.18,0,.36,0,.54-.01.44-.05.88.03,1.31.14.72.71,1.03,1.44,1.17.14.03.32.05.47.04.01,0,.04,0,.03,0-.56-.12-.93-.65-1-1.15ZM4.62,3.69c-.05.18-.53,1.71-1.93,2.29-.86.35-1.46.11-1.56.05-.04-.02-.15-.08-.15-.16,0-.06.05-.12.16-.18.26-.17.59-.28.87-.42.38-.18.76-.41,1.06-.71-.01-.02-.02,0-.03,0-.42.32-.8.53-1.31.67-.33.09-1.15.3-1.12-.28.02-.43.4-.76.77-.93.42-.19.87-.19,1.31-.29.64-.14,1.29-.4,1.88-.67.03-.01.2-.11.21-.1-.01.17-.05.42-.13.71Z"/>
    </g>
  </g>
</svg>