<?xml version="1.0" encoding="UTF-8"?>
<svg id="Layer_2" data-name="Layer 2" xmlns="http://www.w3.org/2000/svg" viewBox="0 0 16.08 6.79">
  <defs>
    <style>
      .cls-1 {
        fill: #fff;
      }
    </style>
  </defs>
  <g id="Layer_1-2" data-name="Layer 1">
    <g>
      <path class="cls-1" d="M13.29,2.54c-.81-.72-2.04-.43-2.48.53-.01,0-.1-.19-.11-.22-.48-.89-1.51-.95-2.17-.23l-.16.21v-.3s-.05-.12-.06-.15c-.21-.3-1.03-.26-1.09.16v3.75c.07.36.54.44.85.36.15-.04.36-.18.38-.35.04-.77-.06-1.6,0-2.36.08-1.02,1.43-.97,1.51.01v2.4s.03.09.06.13c.19.26,1.08.29,1.16-.12v-2.44c.12-1,1.45-.98,1.52.04v2.37c.2.46,1.05.45,1.22-.02-.01-.77.04-1.57,0-2.34-.02-.56-.19-1.08-.62-1.46Z"/>
      <path class="cls-1" d="M5.1,2.55c-.04.76.05,1.57,0,2.32-.03.5-.47.92-.98.83-.34-.06-.66-.43-.68-.77-.05-.76.04-1.57,0-2.33-.05-.29-.41-.41-.67-.39-.22.02-.5.14-.56.37.04.79-.05,1.63,0,2.42.07,1.02,1.07,1.81,2.06,1.81.97,0,1.98-.77,2.05-1.78.05-.8-.04-1.65,0-2.46-.04-.46-1.13-.47-1.22,0Z"/>
      <path class="cls-1" d="M0,.51v5.68c.01.13.09.29.19.38.35.35.99.11,1.04-.38V.51C1.15-.16.06-.18,0,.51Z"/>
      <path class="cls-1" d="M15.35,2.2c-.22.02-.5.1-.54.35,0,1.28-.02,2.56.02,3.84.21.43,1.04.41,1.21-.04v-3.8c-.05-.29-.43-.37-.69-.35Z"/>
      <path class="cls-1" d="M13.4.03c-.56,0-1.11,0-1.67,0-.42,0-.84-.01-1.26,0-1.95,0-3.89,0-5.84,0h-1.92c-.71.18-.68,1.2.05,1.31.76,0,1.53,0,2.3,0h.04s.05.01.08.01c2.75.03,5.51,0,8.26-.02.68-.21.66-1.16-.05-1.31Z"/>
      <path class="cls-1" d="M16,.88c.28-.47-.18-.92-.67-.87-.44.05-.78.52-.48.92.29.38.89.37,1.14-.04Z"/>
    </g>
  </g>
</svg>