<?xml version="1.0" encoding="UTF-8"?>
<svg id="Layer_2" data-name="Layer 2" xmlns="http://www.w3.org/2000/svg" viewBox="0 0 34.96 6.66">
  <defs>
    <style>
      .cls-1 {
        fill: #fff;
      }
    </style>
  </defs>
  <g id="Layer_1-2" data-name="Layer 1">
    <g>
      <path class="cls-1" d="M13.49,5.35c-.11-.28-.2-.66-.35-.9,0,0,0-.06,0-.1-.09-.31-.23-.67-.36-.96h0s0-.05,0-.08c-.22-.61-.41-1.24-.64-1.84-.05-.13-.1-.33-.25-.35-.22-.03-.45,0-.67,0-.13,0-.34-.04-.41.06-.11.14-.19.39-.27.56-.63,1.26-1.28,2.51-1.93,3.76v.09c.16,0,.33,0,.49,0,.11,0,.28-.02.38-.03.14-.02.22-.22.28-.33.19-.35.33-.78.54-1.11.03-.05.06-.11.12-.1h1.7s.5,1.53.5,1.53c.32.07.66.03.99.04,0-.02,0-.04,0-.06-.01-.06-.07-.14-.09-.19ZM10.55,3.39s0-.05.01-.08c.07-.21.23-.49.33-.69.09-.18.28-.59.4-.71.1-.1.1-.05.15.04.14.27.3.8.39,1.11.02.07.07.2.08.26,0,.03,0,.07,0,.1-.46,0-.91.02-1.37-.03Z"/>
      <path class="cls-1" d="M21.68,2.27c-.06,0-.13.04-.2.02l.05-1.23h0c-.15-.02-.3.02-.44.03-.07,0-.4-.02-.42.04l-.22,4.43s0,.02.02.02c.01,0,.15.01.17.02.2,0,.42-.04.62-.03.05-.13.03-.27.04-.4,0-.01,0-.09.03-.08.03.01.16.18.2.23.44.39,1.1.43,1.6.16.87-.47,1.1-2,.49-2.74-.51-.61-1.25-.57-1.96-.47ZM23.08,4.39c-.02.06-.08.18-.09.22,0,.01.01.04,0,.05,0,0-.03,0-.04,0,0,0-.09.14-.12.17-.27.29-.81.31-1.11.06-.08-.07-.24-.28-.28-.38-.01-.04,0-.08-.02-.12,0-.02-.03-.01-.03-.03,0-.04.01-.07.01-.1-.03-.39-.03-.78,0-1.18,0-.08.05-.17.03-.25.03,0,.06,0,.08-.01,0,0,0-.01.03-.01.02,0,.05,0,.07,0,.02-.03.05-.02.08-.03.04,0,.08,0,.12,0,0,0,0-.01.03-.01h0c.41-.02.86-.01,1.11.36.21.3.2.92.12,1.26Z"/>
      <path class="cls-1" d="M34.75,2.5h0c-.39-.33-1.32-.33-1.8-.24-.04,0-.04.04-.05.04-.04,0-.06-.03-.12,0-.07.04-.03.01-.11.02-.06,0-.31.09-.35.13-.09.1-.11.35-.1.48.03.03.27-.08.32-.09.33-.1,1.1-.3,1.4-.1.04.02.12.11.12.15.02.11,0,.33-.07.43,0,.01-.09.1-.1.1,0,0-.09.01-.12.03-.02.01-.02.04-.03.04-.02,0-.05,0-.08,0-.02,0-.02.04-.03.04-.02,0-.04-.02-.05-.01-.02,0-.01.04-.03.04-.01,0-.04-.01-.07,0-.16.03-.51.12-.66.18-.03.01-.03.03-.04.03-.03,0-.07,0-.09,0-.01,0-.01.04-.03.04-.02,0-.04-.01-.05,0-.02,0-.24.1-.25.11-.25.15-.53.33-.6.64-.06.25-.04.53.13.74.15.17.39.29.61.33.21.04.38.03.59.01.1,0,.3,0,.39-.05.04-.03.17-.41.15-.43-.06-.01-.11.02-.17.03-.15.01-.44,0-.58-.03-.02,0-.04.01-.04,0,0,0,0-.02-.02-.03-.05-.03-.1-.04-.16-.09-.13-.12-.16-.26-.1-.42.13-.36.76-.5,1.09-.61.05-.02.39-.15.41-.13,0,.3,0,.61-.03.91.01.26,0,.52-.07.77.02.03.66.03.74.03.05,0,.18,0,.17-.06,0-.67.01-1.34.04-2.01.01-.35.13-.76-.18-1.03Z"/>
      <path class="cls-1" d="M17.51,2.32c-.11.02-.45.07-.49.18-.01.03-.01.09-.02.13,0,.02-.02.04-.02.06,0,.03-.02.22,0,.23.06.04.46-.11.55-.14.31-.09,1.02-.24,1.24.07.07.09.07.28.02.38-.13.3-.82.39-1.12.48-.45.13-1.01.33-1.16.83-.2.68.3,1.07.93,1.11.14,0,.63.02.73-.03.05-.02.11-.17.13-.22.01-.03.06-.18.05-.19-.1-.01-.21.01-.31.01-.34,0-.8-.01-.74-.48.05-.38.59-.55.91-.65.07-.02.58-.18.6-.16,0,.14,0,.27,0,.41,0,.04.02.12-.03.11,0,.02,0,.05,0,.07h.01s-.01.03-.01.03c0,.16-.03.33-.03.48,0,0,.02.03.01.06,0,.03,0,.06-.03.08,0,.07,0,.14,0,.2,0,.04,0,.1-.03.14,0,.03,0,.05,0,.08.29.04.58.03.87.02v-.03c0-.66,0-1.31.05-1.97.02-.3.1-.55-.01-.85-.28-.69-1.54-.54-2.11-.43Z"/>
      <path class="cls-1" d="M31.15,2.29c-.17-.01-.35,0-.53,0,0-.17,0-.34,0-.51,0-.07.04-.24.03-.28-.02-.06-.22.02-.27.03-.14.03-.4.07-.51.16-.13.11-.09.47-.12.62-.07-.04-.13,0-.19.01-.05,0-.13,0-.17.02-.01,0-.01.02-.03.03-.01,0-.03,0-.04.02-.02.03-.06.23-.07.27,0,.04,0,.15.03.18.04.05.38.03.46.04,0,.29-.04.57-.06.85,0,.08,0,.16,0,.23-.02.37-.13.96.02,1.31.17.38,1.02.41,1.37.32.01,0,.08-.03.09-.03.07-.05.12-.32.14-.4.01-.05.05-.1.04-.16-.05-.02-.09.02-.13.03-.07,0-.15,0-.22,0-.12,0-.26.03-.37-.05-.05-.03-.07-.07-.07-.12h0s-.02,0-.03-.03c0-.02,0-.05,0-.07-.04-.04-.03-.09-.03-.14,0-.06,0-.12,0-.18,0-.11.02-.22.03-.31,0-.1,0-.19,0-.29,0-.05.01-.1.01-.14,0-.1.02-.2.01-.3,0,0-.01,0-.01-.02,0-.06-.02-.16.03-.21,0-.04,0-.08,0-.12s.02-.16.04-.18c.07-.04.41-.02.52-.02.05,0,.1,0,.15,0h.03s.03-.03.04-.05c.02-.03.05-.27.06-.32,0-.03-.02-.15-.04-.16-.01,0-.18-.03-.21-.03Z"/>
      <polygon class="cls-1" points="28.69 2.84 28.69 2.84 28.69 2.84 28.69 2.84"/>
      <path class="cls-1" d="M28.71,2.36s-.13-.06-.15-.06c-.54-.13-1.54-.16-1.89.35-.53.77.36,1.18.83,1.6.17.15.42.42.25.66-.22.3-.81.22-1.12.15-.05-.01-.3-.11-.32-.09,0,.12-.01.25,0,.38,0,.04.02.06.03.1,0,.04-.01.09.02.12.1.03.21.06.31.05.45.05,1.39.07,1.75-.21.18-.14.3-.45.29-.68-.03-.43-.72-.82-1.02-1.09-.14-.12-.32-.28-.29-.47.01-.08.06-.21.11-.27,0-.01,0-.03.02-.04.02-.02.17-.04.21-.04.31-.06.49-.03.79.02.04,0,.11.05.16.02.05-.03.03-.4.02-.48Z"/>
      <path class="cls-1" d="M16.17,2.26s-.11-.06-.13-.06c-.23-.04-.56.13-.73.28-.04.04-.2.22-.23.23-.03,0-.03-.06-.03-.08-.01-.1.01-.21-.03-.31-.05,0-.11-.02-.16-.02-.14,0-.44-.02-.57,0-.03,0-.04,0-.05.03-.06.09-.03.4-.03.53-.03.82-.07,1.64-.14,2.46,0,.06-.02.16-.02.22,0,.02,0,.04.01.06,0,0,.13.02.16.02.09,0,.71,0,.73-.03.01-.34,0-.69,0-1.03,0-.35.01-.98.21-1.27.2-.3.54-.34.87-.4.05,0,.11,0,.15-.03.07-.07.05-.5-.01-.58h0Z"/>
      <path class="cls-1" d="M24.86,2.29s-.06,0-.07.04l-.15,3.24c.08-.01.15.01.23.01.15,0,.43,0,.57-.01.02,0,.06,0,.07-.04l.11-3.21h0c-.06,0-.12-.02-.18-.03-.15-.01-.43-.01-.57,0Z"/>
      <path class="cls-1" d="M25.68,1.12s0-.03-.02-.03c-.24.03-.63-.05-.85.03h0s0,.03-.03.03c0,.06,0,.4.02.44,0,.01.16.02.19.03.16,0,.4,0,.56-.01.06,0,.12-.02.13-.09.01-.08,0-.22,0-.31v-.08Z"/>
      <path class="cls-1" d="M.86,1.11C-.15,2.26-.29,3.79.55,5.09c.81,1.25,2.39,1.88,3.82,1.44.85-.26,1.56-.77,2-1.53.01-.02.01-.05.02-.06.69-1.16.58-2.54-.23-3.61C4.91-.34,2.24-.47.86,1.11ZM5.43,1.96c-.23.28-.61.41-.96.49-.35.08-.75.11-1.12.08-.3-.03-.59-.09-.88-.18-.01-.01.04-.05.05-.06.55-.66,1.31-1.18,2.2-1.18.19,0,.49.03.65.15h0c.23.18.24.48.06.7ZM1.7.89c1.01-.68,2.28-.66,3.33-.07h0c.07.04.12.08.19.1.01,0,.02,0,.02.02-.03,0-.07,0-.1,0-.08-.01-.17-.03-.25-.04-.92-.09-1.81.31-2.48.92-.1.09-.18.19-.28.28-.01.01-.08.07-.09.07-.02,0-.07-.02-.09-.03-.18-.08-.41-.29-.54-.44-.08-.09-.13-.33-.09-.44.05-.13.27-.3.39-.39ZM.89,4.91s-.09-.12-.1-.14c-.17-.3-.34-.84-.38-1.19-.04-.39.04-.84.16-1.22.1-.32.26-.61.48-.86.03.06.05.13.08.19.07.11.18.24.27.33h0c.14.13.3.24.47.33-.1.14-.22.27-.32.42-.32.46-.6,1.01-.67,1.57-.02.17-.05.39.01.56,0,.01,0,.02,0,.02ZM6.19,4.45c-.26.61-.7,1.09-1.28,1.42-.9.5-1.95.54-2.87.04-.15-.08-.43-.24-.55-.37,0,0-.04-.06-.02-.06.02,0,.05.03.08.03.12.02.42-.07.55-.12.6-.23,1.01-.65,1.48-1.07,0,0,.05-.05.06-.04l-.07.2c-.08.3-.17.75.06,1.01.22.24.62.13.87,0,.56-.27.88-.86,1.18-1.38h.62s-.1.3-.11.33ZM6.42,3.66s-.05.31-.06.32h-.71c-.06,0-.11.07-.14.11-.06.08-.11.19-.17.28-.24.36-.61.9-1.04,1.01-.12.03-.15.01-.26,0,0,0-.02,0-.03,0,0,0,0-.01,0-.02,0,0-.03-.02-.05-.04-.07-.09-.09-.26-.07-.37.06-.47.39-1.03.65-1.43.11-.17.26-.35.36-.53.05-.08.06-.11,0-.19-.03-.04-.11-.1-.15-.09-.2.03-.42.43-.54.59-.3.41-.61.79-1,1.12-.37.31-.78.63-1.24.79-.02,0-.04,0-.06.01,0,0,0,.02-.02.02-.06.02-.27.04-.33.03-.17-.03-.33-.2-.34-.37-.03-.36.07-.69.21-1.02.17-.42.5-.95.8-1.29.01-.01.05-.06.06-.07.02-.01.1.02.13.03.69.21,1.32.24,2.03.09.27-.05.54-.12.78-.25.11-.06.22-.14.32-.22.16-.14.31-.34.28-.57,0,0,.03.01.04.02h0c.18.17.36.58.43.82.12.41.16.78.1,1.2Z"/>
    </g>
  </g>
</svg>