<?xml version="1.0" encoding="UTF-8"?>
<svg id="Layer_2" data-name="Layer 2" xmlns="http://www.w3.org/2000/svg" viewBox="0 0 67.78 7.95">
  <defs>
    <style>
      .cls-1, .cls-2 {
        fill: #fff;
      }

      .cls-2 {
        font-family: Syne-Regular, Syne;
        font-size: 6.93px;
        font-variation-settings: 'wght' 400;
      }
    </style>
  </defs>
  <g id="Layer_1-2" data-name="Layer 1">
    <g>
      <text class="cls-2" transform="translate(18.86 6.19)"><tspan x="0" y="0">Wade Fit Studio</tspan></text>
      <g>
        <path class="cls-1" d="M13.63.96h-3.24s-.04.02-.04.02l-.63,3.31-.05-.12-.62-3.08c-.02-.07-.06-.14-.14-.15-.42.03-.88-.04-1.3,0-.19.02-.15.22-.2.36l-.6,2.98s-.07-.15-.08-.17c-.2-.97-.29-1.98-.51-2.95-.02-.08-.02-.17-.11-.21h-3.13c-.1-.02-.14.06-.12.15.18.49.27,1.09.46,1.57.06.15.12.15.28.17.28.02.6-.03.87,0,.04,0,.08.01.1.06l1.13,3.84c.03.12.08.15.2.16.5.04,1.06-.03,1.57,0,.14-.01.16-.05.2-.17.23-.8.32-1.68.53-2.48,0-.03.02-.12.06-.12l.64,2.74s.09.04.14.04c.5.04,1.06-.03,1.57,0,.17-.01.17-.07.22-.21.41-1.18.67-2.45,1.06-3.64.06-.19.06-.2.27-.22.29-.02.64.03.92,0,.08,0,.13-.06.15-.14.12-.49.32-.99.43-1.47.02-.09.06-.19-.03-.25Z"/>
        <path class="cls-1" d="M1.98.1c-.03-.06-.08-.07-.14-.08-.18-.02-.85-.03-1.02,0-.12.02-.11.1-.09.2l1.02,3.46c.03.06.08.07.14.08.22.03.74.02.97,0,.16-.01.18-.08.14-.22L1.98.1Z"/>
        <path class="cls-1" d="M15.75.02h-1.05c-.13.02-.15.16-.19.27-.34,1.05-.59,2.13-.93,3.18-.03.12-.09.24.06.29.32-.02.7.04,1.02,0,.07,0,.11-.03.15-.09.31-1.12.7-2.23.99-3.35.03-.11.1-.25-.05-.3Z"/>
        <path class="cls-1" d="M16.48.96c-.05-.01-.44-.01-.51,0-.03,0-.06.02-.09.04-.04.04-.08.18-.1.24-.15.47-.27.96-.41,1.43-.09.24.34.2.48.19.15-.01.18-.04.24-.17.18-.48.27-1.04.45-1.53.01-.06.02-.17-.06-.19Z"/>
        <path class="cls-1" d="M.74,1.16c-.03-.1-.05-.2-.17-.21-.07,0-.45-.01-.51,0-.07.02-.08.11-.06.17.16.48.27,1,.43,1.48.02.05.04.15.08.19.02.02.07.04.11.04.08,0,.4.01.47,0,.09-.02.09-.11.07-.18-.16-.49-.26-.99-.43-1.48Z"/>
      </g>
    </g>
  </g>
</svg>