<?xml version="1.0" encoding="UTF-8"?>
<svg id="Layer_2" data-name="Layer 2" xmlns="http://www.w3.org/2000/svg" viewBox="0 0 64.58 7.05">
  <defs>
    <style>
      .cls-1, .cls-2 {
        fill: #fff;
      }

      .cls-2 {
        font-family: Syne-Regular, Syne;
        font-size: 6.06px;
        font-variation-settings: 'wght' 400;
      }
    </style>
  </defs>
  <g id="Layer_1-2" data-name="Layer 1">
    <g>
      <text class="cls-2" transform="translate(7.81 5.1)"><tspan x="0" y="0">Knowledge Academy</tspan></text>
      <path class="cls-1" d="M5.91,0H0v4.29c.05.69.33,1.36.81,1.86.78.08,1.6.33,2.16.9.55-.57,1.38-.82,2.16-.9.45-.49.72-1.1.79-1.76V0ZM5.43.45l-1.59,1.75-.24-.13.68-1.62h1.15ZM3.09.45h.87l-.6,1.55-.27-.05V.45ZM4.15,3.11c-.35.16-.71.29-1.01.53-.04.03-.13.15-.17.15-.08-.06-.15-.13-.23-.19-.18-.14-.39-.24-.59-.33-.09-.04-.25-.09-.34-.13-.06-.03.01-.16.04-.21.19-.4.65-.65,1.09-.66.53-.01,1.06.32,1.21.84ZM2.81.44l.03.03v1.49c-.08-.02-.23.08-.28,0L1.97.44h.85ZM1.66.45l.66,1.57c.04.06-.2.17-.22.17L.49.45h1.17ZM.42.84l1.48,1.53-.17.21h-.03S.42,1.89.42,1.89V.84ZM.42,2.22l1.18.61-.08.21c-.36-.1-.73-.14-1.1-.15v-.67ZM5.09,5.39c-.59,0-1.2.14-1.71.43-.16.09-.28.2-.43.3-.49-.45-1.19-.68-1.85-.74-.09,0-.21.02-.28-.03v-.65c.77.02,1.6.25,2.14.82.53-.58,1.36-.8,2.12-.82v.67ZM5.49,4.18c-.92-.01-1.86.27-2.54.89-.65-.63-1.62-.89-2.51-.89l-.02-.92c.67-.02,1.36.14,1.94.45.22.12.42.27.6.44.66-.63,1.63-.9,2.53-.89v.92ZM5.51,2.89c-.37.01-.74.06-1.1.15l-.1-.22,1.19-.6v.67ZM5.51,1.89l-1.27.69c-.06,0-.17-.17-.21-.22l1.44-1.53s.03.02.03.02v1.04Z"/>
    </g>
  </g>
</svg>