<?xml version="1.0" encoding="UTF-8"?>
<svg id="Layer_2" data-name="Layer 2" xmlns="http://www.w3.org/2000/svg" viewBox="0 0 20.22 6.83">
  <defs>
    <style>
      .cls-1 {
        fill: #fff;
      }
    </style>
  </defs>
  <g id="Layer_1-2" data-name="Layer 1">
    <g>
      <polygon class="cls-1" points="4.48 0 3.08 4.77 1.68 0 0 0 2.28 6.83 3.9 6.82 5.7 1.41 20.22 1.41 20.22 0 4.48 0"/>
      <path class="cls-1" d="M18.74,1.91v.76c-.06-.08-.11-.16-.17-.23-.62-.72-1.83-.67-2.56-.16-1.25.88-1.29,3.21-.08,4.14.75.57,2.02.59,2.66-.15l.15-.2v.76h1.48V1.9h-1.46l-.02.02ZM18.66,5.01c-.31.66-1.26.79-1.76.29-.63-.63-.39-2.02.6-2.15,1.08-.14,1.57.98,1.15,1.86Z"/>
      <path class="cls-1" d="M7.55,1.95c-1.49.29-2.12,1.63-1.83,3.05.3,1.46,1.66,1.99,3.03,1.78.83-.12,1.67-.6,1.81-1.5h-1.45c-.05.09-.11.18-.19.24-.3.23-.91.21-1.25.07-.34-.15-.51-.47-.53-.83h3.46c.07-.6.07-1.2-.23-1.74-.54-.98-1.76-1.28-2.81-1.08ZM7.14,3.84c0-.35.17-.67.49-.83.37-.19,1.02-.17,1.31.16.17.19.22.43.23.67h-2.03Z"/>
      <path class="cls-1" d="M13.89,1.98c-.4.14-.69.46-.83.86-.01.03,0,.08-.04.1v-1.03h-1.48v4.92h1.48v-2.23c.04-.3.1-.61.27-.86.32-.47.88-.5,1.4-.42v-1.38c-.27-.06-.55-.06-.81.03Z"/>
      <polygon class="cls-1" points="3.76 0 2.41 0 3.08 2.56 3.76 0"/>
    </g>
  </g>
</svg>