<?xml version="1.0" encoding="UTF-8"?>
<svg id="Layer_2" data-name="Layer 2" xmlns="http://www.w3.org/2000/svg" viewBox="0 0 40.74 4.67">
  <defs>
    <style>
      .cls-1 {
        fill: #fff;
      }
    </style>
  </defs>
  <g id="Layer_1-2" data-name="Layer 1">
    <g>
      <path class="cls-1" d="M12.14,2.2c.82-.48.59-1.71-.39-1.83h-2v3.94h2.07c.09,0,.34-.11.43-.15.77-.41.7-1.63-.1-1.95ZM10.12.74h1.52s.26.1.31.13c.38.24.39.8,0,1.04-.05.03-.27.13-.31.13h-1.52V.74ZM11.87,3.88c-.11.03-.43.08-.54.08h-1.22v-1.54h1.22c.08,0,.33.03.43.05.79.13.84,1.2.11,1.41Z"/>
      <path class="cls-1" d="M28.6,3.99c-1.44-.32-1.45-2.97,0-3.3.7-.16,1.41.17,1.55.91h.37c0-.92-.92-1.41-1.76-1.33-2.2.21-2.16,3.94-.04,4.14,1.1.1,1.79-.53,1.87-1.61h-.37c-.13.86-.73,1.39-1.62,1.19Z"/>
      <path class="cls-1" d="M37.65,1.87c-.08.02-.06-.01-.08-.04-.16-.21-.32-.4-.6-.46-1.35-.28-1.85,1.15-1.47,2.22.35.97,1.57,1.11,2.13.27.08,0,.04.37.05.44h.31V.37h-.34v1.51ZM36.57,4.02c-.17-.01-.32-.08-.45-.18-.56-.45-.52-1.84.24-2.08,1.54-.48,1.74,2.38.21,2.26Z"/>
      <path class="cls-1" d="M21.39,3.87c-.12-.82.39-2.42-.84-2.51-.74-.06-1.39.17-1.35,1.03h.34c-.01-.59.52-.71,1.01-.65.33.05.61.41.41.71-.11.17-.96.19-1.21.26-.46.12-.71.4-.69.89.03.65.6.87,1.18.8.37-.04.59-.28.81-.54-.03.45.24.48.62.45v-.38h-.22s-.05-.06-.05-.06ZM21.01,3.33c0,.25-.39.58-.62.65-.37.11-.95.02-.98-.45-.04-.61,1.26-.49,1.6-.73v.53Z"/>
      <path class="cls-1" d="M33.24,3.83c-.09-.6.19-1.79-.25-2.25-.33-.35-1.33-.29-1.68.03-.12.11-.37.67-.24.76h.31c.05-.56.5-.7,1.01-.63.5.07.68.71.22.83-.76.2-1.88-.04-1.66,1.23.14.81,1.64.8,1.91.06l.09.3c.11.22.39.13.59.15v-.38c-.1,0-.27.03-.3-.09ZM32.63,3.76c-.3.31-1.08.42-1.3-.04-.37-.79,1.15-.71,1.55-.89,0,.33-.01.67-.26.93Z"/>
      <path class="cls-1" d="M24.27,2.53c0-.05.06-.1.1-.13.26-.25.72-.54.94-.8.04-.05.06-.12.08-.17l-.48.02-1.42,1.25-.12.03V.37h-.34v3.94h.34v-1.01l.56-.5,1.08,1.49.44.02-.05-.17-1.14-1.6Z"/>
      <path class="cls-1" d="M40.71,3.27c-.15-.7-1.19-.52-1.63-.84-.38-.28-.08-.65.29-.7.48-.06.86.1.94.6h.31c.05-.8-.56-1.05-1.28-.98-.58.06-.94.56-.75,1.12.17.51,1.1.49,1.51.68.36.17.38.52.03.73-.48.29-1.3.1-1.33-.55h-.34c-.13,1.45,2.56,1.44,2.24-.07Z"/>
      <path class="cls-1" d="M14.6,3.84l1.68-2.05.03-.36h-2.16v.38h1.61l-1.66,2.06c-.09.14-.11.29-.05.44h2.33v-.34h-1.81l.03-.12Z"/>
      <polygon class="cls-1" points="19.54 .37 16.46 .37 16.46 .74 17.82 .74 17.82 4.3 18.17 4.3 18.17 .74 19.54 .74 19.54 .37"/>
      <path class="cls-1" d="M34.56,1.6l-.33.4v-.58h-.34v2.88h.34v-1.46c0-.09.06-.32.1-.42.15-.4.56-.58.97-.61v-.43c-.26,0-.52.06-.73.21Z"/>
      <rect class="cls-1" x="22.04" y=".37" width=".34" height="3.94"/>
      <path class="cls-1" d="M6.05,1.58c-.99,1.6-2.6,2.39-4.49,2.22-.44-.04-1.2-.49-1.46-.02-.36.64.34.82.81.86,1.55.14,3.17-.28,4.3-1.38.12-.12.33-.37.44-.5.13-.16.57-.79.61-.95.01-.06.03-.11-.02-.15l-.19-.07Z"/>
      <rect class="cls-1" x="13.27" y="1.43" width=".38" height="2.88"/>
      <path class="cls-1" d="M.62,2.53c1.57.52,1.72-1.83.31-1.71C-.02.9-.11,2.28.62,2.53Z"/>
      <path class="cls-1" d="M4.43.18c-.69-.61-1.62.53-.93,1.09.7.57,1.61-.49.93-1.09Z"/>
      <rect class="cls-1" x="13.27" y=".37" width=".38" height=".62"/>
    </g>
  </g>
</svg>